<svg width="31" height="33" viewBox="0 0 31 33" fill="none" xmlns="http://www.w3.org/2000/svg">
<path d="M17.2376 1.04697C16.784 0.604627 16.1953 0.359863 15.5849 0.359863C14.9746 0.359863 14.3858 0.604627 13.9322 1.04697L0.762268 13.8879V27.8047C0.762268 28.9404 1.17871 30.0296 1.91999 30.8326C2.66126 31.6357 3.66665 32.0868 4.71497 32.0868H9.40881V22.6809C9.40881 20.9064 10.0595 19.2046 11.2177 17.9498C12.376 16.6951 13.9469 15.9902 15.5849 15.9902C17.2229 15.9902 18.7938 16.6951 19.9521 17.9498C21.1103 19.2046 21.761 20.9064 21.761 22.6809V32.0828H26.4548C27.5032 32.0828 28.5086 31.6317 29.2498 30.8286C29.9911 30.0256 30.4076 28.9364 30.4076 27.8007V13.8839L17.2376 1.04697Z" fill="white"/>
</svg>
